<svg id="visual" viewBox="0 0 1440 120" width="1440" height="120" xmlns="http://www.w3.org/2000/svg" xmlns:xlink="http://www.w3.org/1999/xlink" version="1.1">
  <defs>
    <linearGradient id="waveGradient" x1="0%" y1="0%" x2="0%" y2="100%">
      <stop offset="0%" stop-color="#242A36" />
      <stop offset="100%" stop-color="#1E232C" />
    </linearGradient>
  </defs>
  <path d="M0 58C30 51 60 38 90 34C120 30 150 38 180 42C210 46 240 46 270 44C300 42 330 38 360 34C390 30 420 26 450 28C480 30 510 38 540 42C570 46 600 46 630 42C660 38 690 30 720 28C750 26 780 30 810 34C840 38 870 46 900 48C930 50 960 46 990 44C1020 42 1050 42 1080 44C1110 46 1140 50 1170 52C1200 54 1230 54 1260 52C1290 50 1320 46 1350 44C1380 42 1410 46 1440 48V92C1410 84 1380 76 1350 74C1320 72 1290 74 1260 76C1230 78 1200 80 1170 78C1140 76 1110 72 1080 70C1050 68 1020 68 990 70C960 72 930 76 900 78C870 80 840 78 810 76C780 74 750 72 720 74C690 76 660 80 630 82C600 84 570 84 540 82C510 80 480 76 450 74C420 72 390 72 360 74C330 76 300 80 270 82C240 84 210 84 180 82C150 80 120 76 90 74C60 72 30 70 0 74Z" fill="url(#waveGradient)" />
</svg>
