<svg id="Layer_1" data-name="Layer 1" xmlns="http://www.w3.org/2000/svg" viewBox="0 0 1266.54 400.3"><defs><style>.cls-1{fill:#010101;}</style></defs><title>1</title><path class="cls-1" d="M603.33,779.53,600.78,777l-3-2.92c-1.1-1-2.35-2-3.64-3.11a132.91,132.91,0,0,0-20.43-14,156.47,156.47,0,0,0-30.25-13.14,166.47,166.47,0,0,0-28.34-6.25v-.13l-.61.05q-5.18-.66-10.58-1c-1.81-.15-3.65-.13-5.49-.2s-3.72-.17-5.6-.07c-3.76.12-7.6.16-11.45.5-7.7.62-15.48,1.72-23.31,3s-15.71,2.75-23.67,4c-4,.64-8,1.15-12,1.57-2,.22-4.05.5-6.09.66l-6.17.44c-4.12.39-8.31.36-12.51.54-2.1.1-4.22,0-6.34,0s-4.25,0-6.39-.08l-6.43-.31-3.23-.15-3.24-.28-6.5-.56c-2.17-.21-4.34-.53-6.52-.79-8.73-1-17.26-2.7-25.62-4.49-8.31-2-16.48-4.14-24.32-6.81a260.73,260.73,0,0,1-43.77-19,345.83,345.83,0,0,1-36.61-23.65c-11.13-8.09-21.24-16.13-30.52-23.48s-17.78-13.93-24.7-20q-5.22-4.54-9.34-8.71c-2.7-2.81-5.1-5.45-7.07-8a83,83,0,0,1-8.19-12.29c-.9-1.47-1.45-2.67-2-3.42s-.92-1.14-1.19-1.06-.4.58-.39,1.52a18.63,18.63,0,0,0,.54,4.11,50,50,0,0,0,6,14.67,88.08,88.08,0,0,0,6.46,9.48c2.58,3.29,5.57,6.69,8.91,10.18s7.05,7,11,10.71L190.76,676c8.3,7.45,17.46,15.51,27.7,23.74a145.91,145.91,0,0,1-79.62,10.84,152,152,0,0,0,73.39,3.9c-6.06,3.05-12.36,5.81-18.79,8.28-14.35,5.55-29.35,9.89-44.33,14.2,15.48-1.85,31-3.72,46.46-7,1.49-.31,3-.65,4.47-1-8.57,2.66-17.38,4.88-26.21,6.94a235.41,235.41,0,0,1-39.32,5.84,132.34,132.34,0,0,1-39.69-3.65,134,134,0,0,0,39.7,7.41,241.09,241.09,0,0,0,40.63-2.19c13.42-1.84,26.81-4,40.19-7.65a145.48,145.48,0,0,0,14.26-4.66c-1,.69-2,1.38-3.06,2A153.91,153.91,0,0,1,198,747.44c-20.19,7.76-41.86,12.18-63.4,16.53,21.89-1.89,43.93-3.75,65.68-9.36a170.45,170.45,0,0,0,24.66-8.35,192.88,192.88,0,0,1-51.45,21.57A197.93,197.93,0,0,0,240.79,748a206.39,206.39,0,0,1-77.39,30.4,212.43,212.43,0,0,0,99.07-30.55c-2.47,2.5-5,4.92-7.64,7.19-9.18,7.94-20,14.34-31.17,20.17-22.54,11.6-45.82,22.12-70.64,28.32,25.33-3.73,49.91-12,73.78-21.48,11.95-4.81,23.94-10.34,34.95-18.08,1.75-1.24,3.45-2.53,5.13-3.83a116.18,116.18,0,0,1-33.51,24.92A122.05,122.05,0,0,0,287,754.59a101.34,101.34,0,0,1-29.57,25.11A106.16,106.16,0,0,0,293.35,762c-1.32,1.61-2.7,3.19-4.17,4.71,2.21-.74,4.4-1.6,6.58-2.54a123.37,123.37,0,0,1-14,8.91,311.14,311.14,0,0,1-42.42,19.2A315.66,315.66,0,0,0,284.9,780a124,124,0,0,0,19.28-8.67c-7.89,7-17.36,12.66-27.3,17.54-20.14,9.83-41.67,17.31-63.1,24.75,22.13-5,44.32-10.06,66-17.82a144.43,144.43,0,0,0,24.47-11.19,74.41,74.41,0,0,0,7.34-2.82A89.82,89.82,0,0,1,298.46,790a91.94,91.94,0,0,0,13.82-4.22c-1.69,1-3.39,2.07-5.12,3.07a418.34,418.34,0,0,1-50.57,24.78,421,421,0,0,0,53.91-18,166.74,166.74,0,0,0,26-13.16c.77-.49,1.53-1,2.29-1.51-.86,1-1.75,2-2.68,2.92a76.14,76.14,0,0,1-9.47,7.93,255.36,255.36,0,0,1-45,25.39,259.81,259.81,0,0,0,49-19A83.84,83.84,0,0,0,342.22,791a72,72,0,0,0,8.54-7.62,150,150,0,0,1-17,22.19A154.4,154.4,0,0,0,365.34,778a98.14,98.14,0,0,1-6.89,12.62l-.11.11C346,801.36,331.43,810,318.09,820.09c14.69-8,30.16-14.18,44.72-23.36,3.62-2.31,7.17-4.8,10.61-7.51,1.68-1.41,3.39-2.8,5-4.3,1.19-1.1,2.33-2.24,3.47-3.38-1.65,2.61-3.39,5.16-5.28,7.62A103.08,103.08,0,0,1,346,815.83a106.88,106.88,0,0,0,36.19-21.55,115.13,115.13,0,0,0,10.18-10.55,124.08,124.08,0,0,1-9.07,15.15,120.08,120.08,0,0,1-37.6,34.54A124.54,124.54,0,0,0,368.8,821a126.4,126.4,0,0,0,35.75-37.36c-.22,1.2-.43,2.41-.59,3.62a72.22,72.22,0,0,1,11.24-14.3c-2.3,4-4.55,8.14-6.68,12.31-6.4,12.47-11.69,25.77-13.78,39.47,4.48-12.88,11.64-24.3,19.74-34.92a129.42,129.42,0,0,0-12.28,42.69,126.57,126.57,0,0,1,36.69-61,136.46,136.46,0,0,0-16.07,41.76,131.91,131.91,0,0,1,29-43.15,110.38,110.38,0,0,0-9.09,36,106.41,106.41,0,0,1,23.52-42,110.89,110.89,0,0,0-7.67,33.26,106,106,0,0,1,15.18-29.1c-.15.53-.31,1.07-.45,1.6a134.53,134.53,0,0,0-4.51,31.92,130.54,130.54,0,0,1,11.51-29.16c.34-.62.69-1.23,1-1.84a115.87,115.87,0,0,0-3.77,61.65,110.83,110.83,0,0,1,15.77-62.63c-.16.73-.34,1.46-.49,2.19-2.51,12-3.05,24.07-2.84,35.94a169,169,0,0,1,8-28.7,86.24,86.24,0,0,0,.73,39.43,82.74,82.74,0,0,1,13.75-51c-.32.91-.63,1.82-.94,2.73a114.34,114.34,0,0,0-5.55,32,110.4,110.4,0,0,1,12.4-28.86,91.31,91.31,0,0,1,7.84-11c-.33.67-.65,1.35-.95,2a69.76,69.76,0,0,0-4,12.05,37.32,37.32,0,0,0-1,12.36,35.22,35.22,0,0,1,4.5-11,65,65,0,0,1,6.86-9.42,34.4,34.4,0,0,1,6.12-5.5,78.77,78.77,0,0,0-7,29,73.14,73.14,0,0,1,25-32.81c5,1.77,9.69,3.67,14,5.61A175.8,175.8,0,0,1,590.44,776c1.38.86,2.73,1.63,3.94,2.42l3.39,2.25,3,1.89c.87.61,1.67,1.16,2.4,1.64,2.92,1.92,4.65,2.75,5,2.35s-.61-2-2.89-4.78C604.71,781.11,604.06,780.35,603.33,779.53Z" transform="translate(-94.82 -433.13)"/><path class="cls-1" d="M560.27,533.52c-17.6-12.2-36.78-21.92-55.88-31.59l-43.66-22.11C428.57,463.53,396,447.1,360.87,439c-50.2-11.54-103.35-5.24-152.18,11.17-12.39,4.17-24.8,9.11-34.9,17.41-8.89,7.32-15.57,16.9-22.14,26.35-2.49,3.59-16.44,19.41-14.11,23.07,3.54,5.55,17.71-7.32,20.71-9.52,14.51-10.65,28.13-23.05,43.88-31.9,36.57-21.68,82.12-26.81,123.16-15.73,31.19,8.42,59.29,25.45,89.44,37,12.24,4.7,24.84,8.52,36.63,14.25,31,15.08,54.45,42.41,84.18,59.92a153.09,153.09,0,0,0,86.71,20.77C603.9,570.09,583.65,549.73,560.27,533.52Z" transform="translate(-94.82 -433.13)"/><path class="cls-1" d="M604.44,749.09c-1,.66-5.69-4.46-13.77-14s-19.46-23.5-34.33-39.86l-2.81-3.11q-1.47-1.53-2.95-3.11l-6.09-6.41c-4.26-4.25-8.6-8.75-13.34-13.12A330.37,330.37,0,0,0,499.8,643a257.08,257.08,0,0,0-38.26-23.47,242.92,242.92,0,0,0-45-17,369.58,369.58,0,0,0-47.67-9.6c-15.64-2.18-30.85-3.47-45.36-4.06s-28.35-.49-41.28.09-25,1.56-35.78,3.07a208,208,0,0,0-28.77,5.88,149.79,149.79,0,0,0-20.82,7.51c-11.15,5-16.85,8.95-17.65,7.95-.35-.43.68-1.9,3-4.35,1.17-1.22,2.78-2.54,4.67-4.15,1-.78,2.05-1.54,3.19-2.39s2.39-1.72,3.76-2.56a115.83,115.83,0,0,1,20.93-10.53,180.29,180.29,0,0,1,29.72-8.57,327.34,327.34,0,0,1,36.82-5.17,413.11,413.11,0,0,1,42.57-1.59,418.15,418.15,0,0,1,47,3.25,349.71,349.71,0,0,1,49.89,9.72,242.35,242.35,0,0,1,47.81,18.45,252.39,252.39,0,0,1,40.14,25.75A304.77,304.77,0,0,1,540.52,660c4.72,4.75,9,9.6,13.1,14.2l5.87,6.93,2.83,3.37,2.67,3.36a439.35,439.35,0,0,1,30.75,43.57C602.31,742.16,605.32,748.48,604.44,749.09Z" transform="translate(-94.82 -433.13)"/><path class="cls-1" d="M852.86,779.53l2.55-2.55,3-2.92c1.1-1,2.35-2,3.64-3.11a132.91,132.91,0,0,1,20.43-14,156.47,156.47,0,0,1,30.25-13.14,166.47,166.47,0,0,1,28.34-6.25v-.13l.61.05q5.17-.66,10.58-1c1.81-.15,3.65-.13,5.5-.2s3.71-.17,5.59-.07c3.76.12,7.6.16,11.45.5,7.7.62,15.49,1.72,23.31,3s15.71,2.75,23.67,4c4,.64,8,1.15,12,1.57,2,.22,4.05.5,6.09.66l6.17.44c4.12.39,8.31.36,12.51.54,2.1.1,4.22,0,6.34,0s4.26,0,6.39-.08l6.43-.31,3.24-.15,3.23-.28,6.5-.56c2.18-.21,4.34-.53,6.52-.79,8.73-1,17.26-2.7,25.62-4.49,8.31-2,16.48-4.14,24.32-6.81a260.73,260.73,0,0,0,43.77-19,344.81,344.81,0,0,0,36.61-23.65c11.13-8.09,21.24-16.13,30.52-23.48s17.78-13.93,24.7-20q5.22-4.54,9.34-8.71c2.7-2.81,5.1-5.45,7.07-8a83,83,0,0,0,8.19-12.29c.9-1.47,1.45-2.67,2-3.42s.92-1.14,1.19-1.06.4.58.39,1.52a18,18,0,0,1-.54,4.11,50.24,50.24,0,0,1-6,14.67,89.75,89.75,0,0,1-6.47,9.48c-2.58,3.29-5.57,6.69-8.91,10.18s-7,7-11,10.71L1265.43,676c-8.3,7.45-17.46,15.51-27.7,23.74a145.91,145.91,0,0,0,79.62,10.84,152,152,0,0,1-73.39,3.9c6.07,3.05,12.36,5.81,18.79,8.28,14.35,5.55,29.35,9.89,44.33,14.2-15.48-1.85-31-3.72-46.46-7-1.49-.31-3-.65-4.47-1,8.57,2.66,17.38,4.88,26.21,6.94a235.41,235.41,0,0,0,39.32,5.84,132.34,132.34,0,0,0,39.69-3.65,134,134,0,0,1-39.7,7.41,241.09,241.09,0,0,1-40.63-2.19c-13.42-1.84-26.8-4-40.19-7.65a145.48,145.48,0,0,1-14.26-4.66c1,.69,2,1.38,3.06,2a153.91,153.91,0,0,0,28.57,14.33c20.19,7.76,41.86,12.18,63.4,16.53-21.89-1.89-43.93-3.75-65.68-9.36a170.45,170.45,0,0,1-24.66-8.35,192.88,192.88,0,0,0,51.45,21.57A197.93,197.93,0,0,1,1215.4,748a206.46,206.46,0,0,0,77.39,30.4,212.36,212.36,0,0,1-99.06-30.55c2.46,2.5,5,4.92,7.63,7.19,9.18,7.94,20,14.34,31.18,20.17,22.53,11.6,45.81,22.12,70.64,28.32-25.34-3.73-49.92-12-73.78-21.48-12-4.81-24-10.34-35-18.08-1.76-1.24-3.46-2.53-5.14-3.83a116.18,116.18,0,0,0,33.51,24.92,122.05,122.05,0,0,1-53.62-30.48,101.34,101.34,0,0,0,29.57,25.11A106.16,106.16,0,0,1,1162.84,762c1.32,1.61,2.7,3.19,4.17,4.71-2.21-.74-4.4-1.6-6.58-2.54a123.37,123.37,0,0,0,14,8.91,311.14,311.14,0,0,0,42.42,19.2A315.66,315.66,0,0,1,1171.29,780a124,124,0,0,1-19.28-8.67c7.89,7,17.36,12.66,27.31,17.54,20.13,9.83,41.66,17.31,63.09,24.75-22.13-5-44.32-10.06-66-17.82a144.43,144.43,0,0,1-24.47-11.19,75.39,75.39,0,0,1-7.34-2.82,89.82,89.82,0,0,0,13.16,8.23,91.94,91.94,0,0,1-13.82-4.22c1.69,1,3.39,2.07,5.12,3.07a418.34,418.34,0,0,0,50.57,24.78,421,421,0,0,1-53.91-18,166.74,166.74,0,0,1-26-13.16c-.77-.49-1.53-1-2.29-1.51.86,1,1.75,2,2.68,2.92a76.14,76.14,0,0,0,9.47,7.93,255.36,255.36,0,0,0,45,25.39,259.46,259.46,0,0,1-48.95-19A83.35,83.35,0,0,1,1114,791a72.83,72.83,0,0,1-8.54-7.62,150,150,0,0,0,17,22.19A154.4,154.4,0,0,1,1090.85,778a98.14,98.14,0,0,0,6.89,12.62l.12.11c12.32,10.68,26.91,19.33,40.24,29.41-14.69-8-30.16-14.18-44.72-23.36-3.62-2.31-7.17-4.8-10.61-7.51-1.68-1.41-3.39-2.8-5-4.3-1.2-1.1-2.34-2.24-3.48-3.38,1.65,2.61,3.39,5.16,5.28,7.62a103.08,103.08,0,0,0,30.67,26.67A107,107,0,0,1,1074,794.28a113.71,113.71,0,0,1-10.17-10.55,120.07,120.07,0,0,0,46.66,49.69A124.54,124.54,0,0,1,1087.39,821a126.4,126.4,0,0,1-35.75-37.36c.22,1.2.44,2.41.6,3.62a72.63,72.63,0,0,0-11.25-14.3c2.3,4,4.55,8.14,6.68,12.31,6.4,12.47,11.69,25.77,13.78,39.47-4.48-12.88-11.64-24.3-19.74-34.92A129.42,129.42,0,0,1,1054,832.49a126.57,126.57,0,0,0-36.69-61,136.21,136.21,0,0,1,16.07,41.76,131.91,131.91,0,0,0-29-43.15,110.38,110.38,0,0,1,9.09,36,106.41,106.41,0,0,0-23.52-42,110.89,110.89,0,0,1,7.67,33.26,106,106,0,0,0-15.18-29.1c.15.53.31,1.07.45,1.6a134.53,134.53,0,0,1,4.51,31.92,130.06,130.06,0,0,0-11.51-29.16c-.34-.62-.69-1.23-1-1.84a115.87,115.87,0,0,1,3.77,61.65,110.83,110.83,0,0,0-15.77-62.63c.16.73.34,1.46.49,2.19,2.51,12,3,24.07,2.84,35.94a169,169,0,0,0-8-28.7,86.24,86.24,0,0,1-.73,39.43,82.74,82.74,0,0,0-13.75-51c.32.91.63,1.82.94,2.73a114.72,114.72,0,0,1,5.56,32,110.76,110.76,0,0,0-12.41-28.86,90.21,90.21,0,0,0-7.84-11c.33.67.65,1.35,1,2a69.76,69.76,0,0,1,4,12.05,37.32,37.32,0,0,1,1,12.36,35.22,35.22,0,0,0-4.5-11,65,65,0,0,0-6.86-9.42,34.4,34.4,0,0,0-6.12-5.5,78.77,78.77,0,0,1,7,29,73.14,73.14,0,0,0-25-32.81c-5,1.77-9.69,3.67-14,5.61A175.8,175.8,0,0,0,865.75,776c-1.38.86-2.73,1.63-3.94,2.42l-3.39,2.25-3,1.89c-.87.61-1.67,1.16-2.4,1.64-2.92,1.92-4.65,2.75-5,2.35s.61-2,2.89-4.78C851.48,781.11,852.13,780.35,852.86,779.53Z" transform="translate(-94.82 -433.13)"/><path class="cls-1" d="M895.93,533.52c17.59-12.2,36.77-21.92,55.87-31.59l43.66-22.11c32.16-16.29,64.72-32.72,99.86-40.8,50.2-11.54,103.35-5.24,152.18,11.17,12.39,4.17,24.8,9.11,34.9,17.41,8.89,7.32,15.57,16.9,22.14,26.35,2.49,3.59,16.44,19.41,14.11,23.07-3.54,5.55-17.71-7.32-20.71-9.52-14.51-10.65-28.13-23.05-43.88-31.9-36.56-21.68-82.12-26.81-123.16-15.73-31.19,8.42-59.29,25.45-89.44,37-12.24,4.7-24.84,8.52-36.63,14.25-31,15.08-54.45,42.41-84.18,59.92a153.09,153.09,0,0,1-86.71,20.77C852.29,570.09,872.54,549.73,895.93,533.52Z" transform="translate(-94.82 -433.13)"/><path class="cls-1" d="M851.76,749.09c-.88-.61,2.12-6.93,8.69-17.66a438.07,438.07,0,0,1,30.76-43.57q1.31-1.67,2.66-3.36l2.83-3.37,5.87-6.93c4.14-4.6,8.38-9.45,13.1-14.2a304.77,304.77,0,0,1,31.75-28.75,252.39,252.39,0,0,1,40.14-25.75,242.59,242.59,0,0,1,47.81-18.45,349.71,349.71,0,0,1,49.89-9.72,418.31,418.31,0,0,1,47-3.25,413.11,413.11,0,0,1,42.57,1.59,327.34,327.34,0,0,1,36.82,5.17,180.29,180.29,0,0,1,29.72,8.57,115.5,115.5,0,0,1,20.93,10.53c1.37.84,2.61,1.71,3.76,2.56s2.23,1.61,3.19,2.39c1.89,1.61,3.5,2.93,4.68,4.15,2.35,2.45,3.38,3.92,3,4.35-.79,1-6.5-3-17.65-7.95a149.79,149.79,0,0,0-20.82-7.51,208,208,0,0,0-28.77-5.88c-10.81-1.51-22.84-2.48-35.78-3.07s-26.76-.7-41.28-.09-29.72,1.88-45.36,4.06a369.58,369.58,0,0,0-47.67,9.6,242.92,242.92,0,0,0-45,17A257.08,257.08,0,0,0,956.39,643,330.37,330.37,0,0,0,925,669.49c-4.74,4.37-9.08,8.87-13.34,13.12L905.61,689q-1.49,1.58-3,3.11l-2.81,3.11C885,711.6,873.61,725.59,865.52,735.1S852.7,749.75,851.76,749.09Z" transform="translate(-94.82 -433.13)"/></svg>