<svg id="Layer_1" data-name="Layer 1" xmlns="http://www.w3.org/2000/svg" viewBox="0 0 1075.19 203.74"><defs><style>.cls-1{fill:#010101;}</style></defs><title>2</title><path class="cls-1" d="M1122.34,584.46a242.63,242.63,0,0,1-32.5-7.94c-5.3-1.71-10.56-3.44-14.88-6.07a24.75,24.75,0,0,1-3-2.15,38.76,38.76,0,0,0,7.31,1.35c5.94.52,11.72.69,17.56.64a188,188,0,0,0,34.49-3.58,186.78,186.78,0,0,1-34.22-1.13c-5.61-.73-11.27-1.69-16.67-2.92a27.47,27.47,0,0,1-7.13-2.58,9.29,9.29,0,0,1-3.59-3.3c3-3.14,5.84-6.24,8.51-9.26,6.58-7.41,12.15-14.16,17.33-19.74a143.47,143.47,0,0,1,13.94-13.47c8.17-6.77,13.65-9.41,13.22-10.51-.18-.47-1.79-.4-4.68.36a53.44,53.44,0,0,0-11.91,5.32,105.08,105.08,0,0,0-16.48,12.24c-6,5.24-12.26,11.66-19.18,18.42s-14.67,13.94-23.27,21.28a323.83,323.83,0,0,1-28.56,21.82,255.2,255.2,0,0,1-34.15,19.6,192.7,192.7,0,0,1-39.5,13.79,175.61,175.61,0,0,1-20.87,3.53,191.64,191.64,0,0,1-20.61,1.06,223.47,223.47,0,0,1-39.06-3.58A273.08,273.08,0,0,1,829.68,609c-2.7-.82-5.32-1.71-7.88-2.61s-5.09-1.77-7.58-2.69c-5-1.84-9.8-3.67-14.52-5.29s-9.33-3-13.8-4.13a108,108,0,0,0-12.76-2.3,99.56,99.56,0,0,0-20.58-.33,66.27,66.27,0,0,0-12.73,2.27c-2.84.85-4.24,1.63-4.16,2.13s1.66.76,4.54.9,7.07.2,12.41.59a131.4,131.4,0,0,1,19.11,2.79,115.26,115.26,0,0,1,13.75,4,115.88,115.88,0,0,1-40.78,29.27,120.29,120.29,0,0,0,46.48-22.73,100.26,100.26,0,0,1-25.9,31.73,104,104,0,0,0,31.86-27.35c-.12,1.29-.26,2.58-.44,3.87a100.26,100.26,0,0,1-11,33.91,103.52,103.52,0,0,0,13.15-20.7c.64-1.33,1.24-2.68,1.83-4.05a142.59,142.59,0,0,1-11.43,38A146.07,146.07,0,0,0,809.82,620a121.16,121.16,0,0,1-.83,24.69,124.71,124.71,0,0,0,8.51-27h0l1.17.47A131.36,131.36,0,0,1,797.2,668a134.75,134.75,0,0,0,20.18-26.21,108.71,108.71,0,0,1-17.07,31,112.71,112.71,0,0,0,29.55-45.53,310.84,310.84,0,0,0,2.65,66.1,306.81,306.81,0,0,1,3.43-51,261.06,261.06,0,0,0,12,55.27,257.9,257.9,0,0,1-4.92-58.78,195.13,195.13,0,0,0,8.23,41.65,190.9,190.9,0,0,1,.18-51.44l.35.09a195.61,195.61,0,0,0,8.77,52.19,191,191,0,0,1-.44-46.43,321.94,321.94,0,0,0,19.73,69.47,317.37,317.37,0,0,1-10.27-60.19A58.11,58.11,0,0,0,876,655.41a56.31,56.31,0,0,1-2.07-13A146.74,146.74,0,0,0,885.74,676a143.93,143.93,0,0,1-4.82-29.14,75.76,75.76,0,0,0,3.79,10.1,74,74,0,0,1,.38-15.7,288.05,288.05,0,0,0,10.45,40.52,284.91,284.91,0,0,1-3-35,55.16,55.16,0,0,0,18.89,30.65,51.64,51.64,0,0,1-12-38.05,98.68,98.68,0,0,0,8.76,24.67c4.91,9.27,11.84,17.52,20.49,23-7.69-6.72-12.94-15.58-16.16-24.86-.44-1.27-.83-2.55-1.2-3.83a54,54,0,0,0,14.86,17.69,51.92,51.92,0,0,1-12.29-27.35,46.29,46.29,0,0,0,4.08,8.11,50.71,50.71,0,0,1-.82-12,117.3,117.3,0,0,0,27.47,44.22,113.23,113.23,0,0,1-20.51-50.87A55.31,55.31,0,0,0,937.64,662a53,53,0,0,0,27.51,15A50.64,50.64,0,0,1,941.26,659a48.54,48.54,0,0,1-6.46-12.71,40.31,40.31,0,0,0,21.34,14,37.18,37.18,0,0,1-15.41-15.5c.75.91,1.52,1.79,2.32,2.62a84.59,84.59,0,0,0,15.13,11.86c10.62,6.8,21.9,12,33.12,17.19-10.48-6.56-21-13.18-30.32-21-4.63-3.93-9.14-8.06-12.54-12.66a31.33,31.33,0,0,1-2.16-3.23,67.82,67.82,0,0,0,16.47,11.64c9.28,4.73,19.11,7.53,28.92,9.77-9.35-3.73-18.52-8-26.46-13.8a66,66,0,0,1-8.69-7.53c2.38,1.34,4.79,2.61,7.23,3.77A116.35,116.35,0,0,0,982,650.18a112.18,112.18,0,0,1-15.47-10.61l3.83,1.77,2.61,1.2a87,87,0,0,0,27.28,17.28,83.74,83.74,0,0,1-14.06-11.18,97.64,97.64,0,0,0,10.71,6.22,84.77,84.77,0,0,1,12.08,6.91,86.42,86.42,0,0,0-10.83-8.92A90.7,90.7,0,0,1,987.71,644c-1.17-1.16-2.3-2.36-3.4-3.58.47.32.93.66,1.4,1a93.86,93.86,0,0,0,14.51,7.52,106.61,106.61,0,0,0,50.67,21.74,104,104,0,0,1-48.58-27.45l4.05,1.75c2.86,1.23,5.74,2.45,8.64,3.62,11.56,4.7,23.53,8.79,35.83,10.63-12-3.39-23.06-8.85-33.79-14.89-1.24-.69-2.46-1.42-3.7-2.14a81.57,81.57,0,0,0,17.47,4.48,80.5,80.5,0,0,1-21.55-10.8,49.48,49.48,0,0,0,9.63,3.56c3.33.88,6.66,1.47,9.95,2l9.84,1.62,19.66,3.24-19.14-5.54-9.57-2.77c-3.17-.93-6.3-1.88-9.28-3.06a44,44,0,0,1-8.37-4.29l-.71-.49c.83.17,1.65.34,2.47.49l28.35,5-23.44-8.24c2.37.7,4.74,1.34,7.11,1.9,12.12,2.85,24.33,4.16,36.51,5.4-11.92-2.79-23.85-5.67-35.14-9.92l-.41-.16a115.7,115.7,0,0,0,16,3.09c-6.9-2.51-13.79-5.26-19.6-9.23a36.87,36.87,0,0,1-3.49-2.66,44.08,44.08,0,0,0,4.09,2.11,111.53,111.53,0,0,0,18.42,6.21c6.2,1.57,12.41,2.79,18.62,4s12.46,2.2,18.73,3c-6.13-1.52-12.16-3.32-18.15-5.24s-12-3.92-17.76-6.19a106.18,106.18,0,0,1-16.55-8c-.55-.34-1.08-.69-1.6-1,2.38,1.12,4.8,2.13,7.24,3a126.35,126.35,0,0,0,25.11,5.9c8.38,1.14,16.84,2.27,25.41,2s17.17-2.27,24.23-6.94c-7.47,4-16,5-24.21,4.57s-16.41-2.35-24.54-4.24a120.74,120.74,0,0,1-23.29-7.81,72.44,72.44,0,0,1-8.81-4.9c1.82.85,3.67,1.62,5.52,2.27a86.26,86.26,0,0,0,13.47,3.39c9,1.59,17.81,2.25,26.55,4.23-8.26-3.48-17.07-5.76-25.32-8.79a87.77,87.77,0,0,1-9.54-4.1c3.08,1.06,6.21,2.22,9.41,3.26a68.17,68.17,0,0,0,10.64,2.67,85.06,85.06,0,0,0,10.75.92,82.9,82.9,0,0,1-10.13-3.2,64,64,0,0,1-8.73-4.35c2.72.51,5.41.89,8.1,1.22,10.87,1.33,21.66,1.44,32.42,1.57-10.63-1.69-21.29-3.39-31.51-6.2-2.72-.75-5.41-1.56-8-2.49l7.65,1.08,22.22,3.11L1059,589l-5.24-1.92c1.2.27,2.39.51,3.6.75,6,1.14,12.07,1.81,18,2.4s11.92,1.19,18,1.44a80.56,80.56,0,0,0,9.06-.06,23,23,0,0,0,8.74-2.19,22.44,22.44,0,0,1-8.75,1,79.55,79.55,0,0,1-8.8-1.11c-4.89-.85-9.77-2-14.65-3.11q5.85.46,11.7.63c-2.06-.49-4.1-1-6.13-1.57l1.33.18q-7.34-2.81-14.34-6.2l15.85,3.3-5.26-2.69c2.21.46,4.41.84,6.58,1.23A243.08,243.08,0,0,0,1122.34,584.46Zm-63-17.28.11-.11.33.48C1059.6,567.42,1059.44,567.3,1059.3,567.18Z" transform="translate(-56.09 -500.54)"/><path class="cls-1" d="M98.56,578.32c2.18-.37,4.38-.74,6.59-1.19l-5.28,2.66,15.88-3.2q-7,3.35-14.39,6.11l1.34-.17c-2,.54-4.08,1.05-6.13,1.53q5.84-.12,11.7-.56c-4.9,1.1-9.78,2.2-14.68,3a79.13,79.13,0,0,1-8.8,1.06,22.4,22.4,0,0,1-8.74-1.06,23.09,23.09,0,0,0,8.72,2.24,83,83,0,0,0,9.06.11c6-.21,12-.82,18-1.34s12-1.19,18-2.3c1.2-.23,2.4-.47,3.59-.72l-5.24,1.88L107.11,594l22.23-3,7.66-1c-2.61.91-5.31,1.71-8,2.45-10.24,2.75-20.91,4.39-31.54,6,10.76-.07,21.55-.12,32.42-1.38,2.69-.32,5.39-.69,8.1-1.19a63.41,63.41,0,0,1-8.75,4.31,85.23,85.23,0,0,1-10.14,3.15,85.1,85.1,0,0,0,10.75-.87,68.12,68.12,0,0,0,10.65-2.61c3.21-1,6.35-2.16,9.43-3.2a87.84,87.84,0,0,1-9.56,4c-8.27,3-17.1,5.21-25.37,8.65,8.75-1.93,17.6-2.54,26.57-4.08A87,87,0,0,0,155,601.93a57.93,57.93,0,0,0,5.54-2.25,72.59,72.59,0,0,1-8.84,4.86,121.83,121.83,0,0,1-23.34,7.68c-8.13,1.84-16.31,3.67-24.56,4.1s-16.74-.69-24.18-4.71c7,4.71,15.68,6.72,24.18,7.07s17-.73,25.43-1.82a127.94,127.94,0,0,0,25.14-5.75c2.45-.87,4.87-1.87,7.26-3-.53.35-1.06.7-1.61,1A107.14,107.14,0,0,1,143.45,617c-5.81,2.23-11.8,4.18-17.8,6.09s-12,3.65-18.17,5.13c6.27-.7,12.52-1.7,18.74-2.84s12.43-2.34,18.64-3.87a112.7,112.7,0,0,0,18.46-6.1q2.06-.93,4.1-2.1a38.25,38.25,0,0,1-3.5,2.65c-5.84,3.93-12.75,6.64-19.66,9.11a113,113,0,0,0,16.06-3l-.41.16c-11.31,4.19-23.27,7-35.19,9.72,12.18-1.17,24.4-2.4,36.54-5.19,2.37-.54,4.74-1.18,7.11-1.86l-23.49,8.11,28.38-4.81,2.47-.48-.71.49a44,44,0,0,1-8.39,4.24c-3,1.16-6.12,2.1-9.3,3l-9.58,2.71-19.18,5.44,19.69-3.13L158.1,639c3.29-.53,6.63-1.1,10-2a49.51,49.51,0,0,0,9.66-3.5,80.8,80.8,0,0,1-21.61,10.67,81.63,81.63,0,0,0,17.49-4.38c-1.24.71-2.47,1.43-3.72,2.12-10.76,6-21.88,11.38-33.87,14.69,12.31-1.76,24.31-5.79,35.9-10.42,2.9-1.16,5.78-2.36,8.65-3.57l4.07-1.73A103.83,103.83,0,0,1,135.89,668a106.6,106.6,0,0,0,50.8-21.44,95.19,95.19,0,0,0,14.55-7.45c.47-.31.93-.64,1.4-1-1.11,1.22-2.24,2.41-3.42,3.56a89.79,89.79,0,0,1-10.52,8.82,87.14,87.14,0,0,0-10.88,8.86,85.34,85.34,0,0,1,12.12-6.84,98.44,98.44,0,0,0,10.74-6.16,83.66,83.66,0,0,1-14.12,11.1,87.09,87.09,0,0,0,27.38-17.12l2.62-1.19c1.27-.58,2.55-1.15,3.83-1.75A111.37,111.37,0,0,1,204.86,648a115.28,115.28,0,0,0,18.32-6.73c2.45-1.15,4.87-2.41,7.25-3.73A66.82,66.82,0,0,1,221.7,645c-8,5.72-17.17,10-26.54,13.65,9.83-2.19,19.67-4.93,29-9.61a67.74,67.74,0,0,0,16.55-11.54,36.45,36.45,0,0,1-2.18,3.22c-3.43,4.58-8,8.68-12.61,12.59-9.38,7.76-19.93,14.32-30.45,20.82,11.26-5.12,22.56-10.26,33.22-17a84.43,84.43,0,0,0,15.2-11.78c.81-.82,1.58-1.7,2.34-2.6a37.32,37.32,0,0,1-15.5,15.41,40.33,40.33,0,0,0,21.41-13.83A48.38,48.38,0,0,1,245.58,657a50.59,50.59,0,0,1-24,17.93,53,53,0,0,0,27.6-14.87,55.4,55.4,0,0,0,13.66-23.71,113.11,113.11,0,0,1-20.8,50.75,117.17,117.17,0,0,0,27.72-44.06,50.25,50.25,0,0,1-.89,12,46.74,46.74,0,0,0,4.13-8.1,51.87,51.87,0,0,1-12.44,27.29,54.07,54.07,0,0,0,15-17.61c-.38,1.29-.78,2.56-1.22,3.82A58.06,58.06,0,0,1,258,685.18c8.67-5.41,15.65-13.62,20.61-22.86a98,98,0,0,0,8.9-24.62,51.66,51.66,0,0,1-12.25,38,55.17,55.17,0,0,0,19.06-30.55,282.88,282.88,0,0,1-3.16,35,287.58,287.58,0,0,0,10.69-40.46,73.44,73.44,0,0,1,.28,15.71A75.86,75.86,0,0,0,306,645.27a143.28,143.28,0,0,1-5,29.12,146.89,146.89,0,0,0,12-33.6,55.78,55.78,0,0,1-2.15,13,58.35,58.35,0,0,0,6.45-11.28,318,318,0,0,1-10.61,60.13,321.92,321.92,0,0,0,20.12-69.36,191.07,191.07,0,0,1-.7,46.43,195.78,195.78,0,0,0,9.06-52.14l.35-.09a191,191,0,0,1-.1,51.44,195.45,195.45,0,0,0,8.45-41.61,256.79,256.79,0,0,1-5.25,58.76A260.65,260.65,0,0,0,351,640.89,308.28,308.28,0,0,1,354.14,692a310.72,310.72,0,0,0,3-66.09,112.89,112.89,0,0,0,29.29,45.7,109.07,109.07,0,0,1-16.89-31.07,134.66,134.66,0,0,0,20,26.33,131.46,131.46,0,0,1-21.21-49.9l1.18-.46h0a125.09,125.09,0,0,0,8.36,27,121.77,121.77,0,0,1-.69-24.69,146.13,146.13,0,0,0,20.3,46.34,142.27,142.27,0,0,1-11.21-38.06c.57,1.36,1.17,2.72,1.8,4.06a103.69,103.69,0,0,0,13,20.77,100.35,100.35,0,0,1-8.59-22.38A99,99,0,0,1,390.37,618c-.18-1.29-.31-2.59-.42-3.88a103.7,103.7,0,0,0,31.71,27.53,99.87,99.87,0,0,1-25.72-31.87,120.23,120.23,0,0,0,46.34,23,115.92,115.92,0,0,1-40.61-29.5,116.33,116.33,0,0,1,13.77-3.92,129.94,129.94,0,0,1,19.13-2.68c5.34-.37,9.53-.4,12.41-.53s4.45-.34,4.54-.87-1.31-1.29-4.15-2.15a65.79,65.79,0,0,0-12.71-2.34,99.35,99.35,0,0,0-20.59.21,109.77,109.77,0,0,0-12.77,2.23c-4.47,1-9.08,2.45-13.82,4s-9.58,3.4-14.55,5.21c-2.49.9-5,1.8-7.59,2.65s-5.2,1.76-7.89,2.57a273.32,273.32,0,0,1-34.78,8.44,223,223,0,0,1-39.08,3.37A191.64,191.64,0,0,1,263,618.31a179.8,179.8,0,0,1-20.86-3.65,192.85,192.85,0,0,1-39.42-14,255,255,0,0,1-34-19.79,324,324,0,0,1-28.44-22c-8.56-7.39-16.29-14.59-23.15-21.41S104,524.2,98,518.93A105.15,105.15,0,0,0,81.6,506.6a52.75,52.75,0,0,0-11.87-5.38c-2.89-.78-4.49-.86-4.68-.39-.43,1.09,5,3.76,13.16,10.58A144.53,144.53,0,0,1,92.07,525c5.16,5.6,10.69,12.39,17.22,19.84,2.65,3,5.48,6.14,8.47,9.3a9.3,9.3,0,0,1-3.62,3.29,27.89,27.89,0,0,1-7.14,2.53c-5.41,1.21-11.07,2.13-16.68,2.83a187,187,0,0,1-34.23.94,188.67,188.67,0,0,0,34.47,3.77c5.84.08,11.62-.05,17.56-.54a38.82,38.82,0,0,0,7.32-1.31,24.53,24.53,0,0,1-3.06,2.13c-4.33,2.61-9.6,4.3-14.91,6a241.49,241.49,0,0,1-32.54,7.75A241.49,241.49,0,0,0,98.56,578.32Zm29.06-13.39.33-.47.11.1C127.92,564.68,127.76,564.8,127.62,564.93Z" transform="translate(-56.09 -500.54)"/></svg>