<svg id="Layer_1" data-name="Layer 1" xmlns="http://www.w3.org/2000/svg" viewBox="0 0 1244.03 298.84"><title>3</title><path d="M618.65,626c7.44,5.39,14.82,10.86,22.24,16.27-12.79-4-23.25-9.9-33.84-18-.38.59-.75,1.18-1.13,1.76,7.06,5.32,14,10.75,21.44,15.59l-.79,1.27c-10.76-6.5-21.18-13.59-31.53-20.72,9,13.8,18.49,24,32.29,33.08-13.35-5.13-25.17-10.61-36.59-19.37,5,9.63,13.24,16.1,22.5,21.52-11-1.19-19-6.8-26.53-14.7-.57.66-1.13,1.33-1.7,2,7.55,8.18,15.89,15.65,24.09,23.19-.24.34-.47.69-.71,1-9.86-6.12-19.87-12-29.3-18.74,4.07,6,8.47,11.93,13,17.61-.55.52-1.1,1-1.66,1.53-7.79-7.66-15.43-15.39-22.88-23.39,3.38,14.62,15.75,24.52,24.81,35.73-4.87-4.51-10.44-7.91-15.56-12.11s-9.63-9.07-15.12-12.8c6.55,9.88,13.55,20,21.75,28.54a306.38,306.38,0,0,1-24.88-18.49l-.94.5c3.36,4.1,6.75,8,10.49,11.74-.74.54-1.49,1.07-2.24,1.6-8.95-8.21-16.59-17.64-24.44-26.88l-.81.37c3,5.66,6,11.34,9.08,16.94-2.18-1.49-4.3-3.07-6.43-4.62-.69.47-1.39.93-2.1,1.37,7.29,10.22,15.41,19.58,22.65,29.71-14-10-25.44-19.43-35.88-33.23,3.33,8.45,6.25,17.29,10.86,25.13-.49.3-1,.58-1.48.86-3.8-3.93-6.88-8.5-10.14-12.88l-1.05.46c1.44,4.07,2.66,8.15,3.78,12.32l-1.69.72c-5.31-10.53-10.72-21-16.36-31.33l-1.27.48c3.84,12.47,6.76,24.93,9.69,37.63l-1,.42c-4.49-11.75-8.71-23.34-13.95-34.8l-1.11.3c3.42,14.45,6.46,29.18,7.69,44l-.71.28c-2.2-9-6.64-17.44-10-26-.44.11-.89.23-1.34.32,1.58,10.53,3.82,21.17,4.25,31.81l-1.31.36c-2.51-15.06-6.62-29.77-10.83-44.42l-1,.09c1.2,17.22,2.34,34.35,2.92,51.61l-1.17.18c-2.44-11.05-4.09-22.29-6.48-33.37-1.26,10-2.7,19.86-3.14,29.95-.65-.06-1.29-.12-2-.14-2-22.2.85-45,1.85-67.23l-.78,0c-3,23.16-8.82,47.1-6.06,70.45l-1.58-.14c-3.4-17-2.82-33.54-1.56-50.83l-1.76.06c-2.55,10.36-4.52,20.78-7.6,31l-2.68,0c1.81-10.34,3.64-20.66,5.16-31-6.23,19.91-14.44,35.11-29.17,50,11.73-20.2,19.73-40.87,22.82-64.07-3,9.87-5.88,19.75-9.15,29.54l-1.82-.17c1.29-12.14,2.48-24.27,3.73-36.44-3.56,12.78-6.68,25-11,37.77a189.84,189.84,0,0,1-17.33,37.78c3.69-24.28,11.44-47.33,18.8-70.82-9,20-15.95,38.56-32.86,53.34a307.25,307.25,0,0,0,27.63-66c-16.47,30.85-25.59,49.87-52.72,73.24C397,694.65,409.08,675,421.5,655.33l-2.12-.72a486.23,486.23,0,0,1-30.23,44.15c10.93-21.93,23.38-40.41,29.48-64.57C401,668.26,387.89,686,354,705.34c9.26-9.45,19.59-17.78,28.47-27.55S398.57,657,405.79,646c-14.75,15.3-27.89,30.73-46.12,42,4.61-5.76,9.52-11.27,14.37-16.83l-1.09-.65-12.62,10.27c-.21-.16-.42-.32-.64-.47,11.89-16.27,24.18-32.09,36.92-47.7l-1.91-.93c-18.81,19-35.42,42-57.64,57.12,16.57-19.23,39.16-48.81,48.89-72-6.19,8.07-11.11,16.49-18.27,23.92a105.49,105.49,0,0,1-24.77,18.82c13.84-13.64,26.32-28.06,35.37-45.36-25.74,25.3-44.16,45.38-77.61,61.28,18-16,36.2-31.68,54.46-47.39-.83-.63-1.66-1.26-2.47-1.91-6,4.24-12,8.55-18.09,12.68-.28-.21-.56-.42-.85-.62l2.22-4.17c-14.16,7.93-27.82,17-43.63,21.24,8.26-4.8,16.2-10.11,24.83-14.2l-.75-1.17a47.65,47.65,0,0,0-7.07.22c9.53-8,20-15,29.76-22.78-.57-.45-1.13-.91-1.67-1.41-25.26,15.77-50.15,20.33-79.29,24.27,14.18-5.3,28.45-8.61,43.1-12.4l-1-1.66-21.39,3.35-.93-1.34c10.13-3.09,20.26-6.14,30.29-9.52-.34-.48-.66-1-1-1.44-12.14,3.07-24.42,5.49-36.68,8-.37-.58-.73-1.17-1.09-1.76,5.82-1.74,11.57-3.56,17.44-5.2s12.06-2.7,17.73-4.93a145.92,145.92,0,0,0,16.19-8c-25.57,5.59-51.07,11.6-77.21,13.77,13.21-4.18,26-8.9,39.44-12.29-.35-.61-.71-1.22-1.07-1.83-5.58,1.26-12.77,1.65-17.82,4.18l-.78-1.39c16.56-6.63,33.55-12,50.36-17.93-.32-.54-.64-1.09-.94-1.63-41.2,10.84-77.13,5.3-118.08-4.17,10.12.41,18.47,0,29,.92s23.17,2.77,34.1,4c-.1-.64-.35-1.3-.5-2-6.93-1.07-13.77-2.51-20.73-3.36,0-.51-.07-1-.11-1.53,4.88,0,9.73.2,14.61.34-.07-.35-.15-.71-.22-1.06q-13.89-2.48-27.88-4.31c0-.37-.07-.73-.1-1.09a41.24,41.24,0,0,1,6-.91c-13-3.27-26-5.95-39.08-8.65.09-.71.19-1.43.28-2.14,23.48,4.65,47.2,4.16,70.94,1.84-11-1.38-23.54-4.33-34.5-3-.11-.58-.22-1.15-.34-1.73,16.77-4.37,35.57-2.86,52.85-3.59l-.51-2.73c-47.72-.37-81.9-21.06-118.52-49.88,38.29,21.89,70.7,43.17,116.51,40.85-47.78-5.74-88.47-30.64-127-58.23,41.11,21.35,81,50.31,129.49,44.84-57.47-4-109.71-33.3-149.9-73.86,41.5,28.69,86.23,64.16,138.81,65.19-58.16-9.92-106.11-51.49-139.84-98,36.62,39.34,83.57,81.29,139.26,87.49-34.26-9.79-65.29-27.14-88.9-54.12,9.18,6.76,17.43,13.8,27.13,20.07a171.31,171.31,0,0,0,31.27,15.62c10.89,4.2,21.84,6.22,33.3,8-15.69-7-31.44-13.62-46.63-21.74s-28.24-19-40.48-31.05c41.18,30.3,70.24,47.85,123,41.82,5.69,13.94,6,25.92,15.19,38.8,31.47,44.14,74.23,55.57,127.57,66.45,75.15,15.33,112.62-19.14,168.93-57.26,2.19-1.48,5.14-2.36,7.25-1.43,14.86,6.51,27.61,11.42,44.15,10.31-9.78,3.95-18.31,3-28.47,1.3,10.61,6.28,20.65,7.28,32.8,6.38-11.49,5.3-21.11,8.18-33.17,3,8.71,5.38,17.4,8.84,27.77,8.11-2.82.87-5.79.52-8.4,2.22a9.92,9.92,0,0,0-4.44,6.59c-.19.94,2.41,3.4,3.93,4,5.1,2.14,10.56,5.18,15.91,7.19-4-.07-7-.19-11.2-.49a66.32,66.32,0,0,1-13.4-2.21c-4.27-1.26-8.38-3.56-12.52-5.25-.24.83-.46,1.68-.69,2.52,9.37,2.83,18.61,6.1,27.88,9.23-.07.46-.14.91-.22,1.37-7.94-1.69-15.86-3.49-23.85-5-.22.78-.45,1.55-.68,2.33,8.07,2.64,16,5.69,24.22,7.93-16.29,4.52-34.61-7.31-48.85-13.81,10.48,10.11,22.74,15.71,35.69,22l-.6,1.84q-13.32-4.92-26.79-9.31c14.39,10.78,28,19.3,45.47,24.14-14,2-28.07-4.51-40.87-9.23,3.2,2.37,6.26,4.89,9.53,7.19s6.69,4.37,10,6.55l-1,2c-6.71-3.65-13.82-7-20.24-11s-12-8.93-18.45-12.88c5.17,5.39,10,11,15.61,15.94s11.72,9.42,17.15,14.62c-7.23-3.94-14.36-8.1-21.59-12.08C619.27,624.88,619,625.42,618.65,626Z" transform="translate(-127.99 -426.08)"/><path d="M881.35,626c-7.44,5.39-14.82,10.86-22.24,16.27,12.79-4,23.25-9.9,33.84-18,.38.59.75,1.18,1.13,1.76-7.06,5.32-14,10.75-21.44,15.59l.79,1.27c10.76-6.5,21.18-13.59,31.53-20.72-9,13.8-18.49,24-32.29,33.08,13.35-5.13,25.17-10.61,36.59-19.37-5,9.63-13.24,16.1-22.5,21.52,11-1.19,19-6.8,26.53-14.7.57.66,1.13,1.33,1.7,2-7.55,8.18-15.89,15.65-24.09,23.19.24.34.47.69.71,1,9.86-6.12,19.87-12,29.3-18.74-4.07,6-8.47,11.93-13,17.61.55.52,1.1,1,1.66,1.53,7.79-7.66,15.43-15.39,22.88-23.39-3.38,14.62-15.75,24.52-24.81,35.73,4.87-4.51,10.44-7.91,15.56-12.11s9.63-9.07,15.12-12.8c-6.55,9.88-13.55,20-21.75,28.54a306.38,306.38,0,0,0,24.88-18.49l.94.5c-3.36,4.1-6.75,8-10.49,11.74.74.54,1.49,1.07,2.24,1.6,8.95-8.21,16.59-17.64,24.44-26.88l.81.37c-3,5.66-6,11.34-9.08,16.94,2.18-1.49,4.3-3.07,6.43-4.62.69.47,1.39.93,2.1,1.37-7.29,10.22-15.41,19.58-22.65,29.71,14-10,25.44-19.43,35.88-33.23-3.33,8.45-6.25,17.29-10.86,25.13.49.3,1,.58,1.48.86,3.8-3.93,6.88-8.5,10.14-12.88l1.05.46c-1.44,4.07-2.66,8.15-3.78,12.32l1.69.72c5.31-10.53,10.72-21,16.36-31.33l1.27.48c-3.84,12.47-6.76,24.93-9.69,37.63l1,.42c4.49-11.75,8.71-23.34,13.95-34.8l1.11.3c-3.42,14.45-6.46,29.18-7.69,44l.71.28c2.2-9,6.64-17.44,10-26,.44.11.89.23,1.34.32-1.58,10.53-3.82,21.17-4.25,31.81l1.31.36c2.51-15.06,6.62-29.77,10.83-44.42l1,.09c-1.2,17.22-2.34,34.35-2.92,51.61l1.17.18c2.44-11.05,4.09-22.29,6.48-33.37,1.26,10,2.7,19.86,3.14,29.95.65-.06,1.29-.12,1.95-.14,2-22.2-.85-45-1.85-67.23l.78,0c3,23.16,8.82,47.1,6.06,70.45l1.58-.14c3.4-17,2.82-33.54,1.56-50.83l1.76.06c2.55,10.36,4.52,20.78,7.6,31l2.68,0c-1.81-10.34-3.64-20.66-5.16-31,6.22,19.91,14.44,35.11,29.17,50-11.73-20.2-19.73-40.87-22.82-64.07,3,9.87,5.88,19.75,9.15,29.54l1.82-.17c-1.29-12.14-2.48-24.27-3.73-36.44,3.56,12.78,6.68,25,11,37.77a189.84,189.84,0,0,0,17.33,37.78c-3.69-24.28-11.44-47.33-18.8-70.82,9,20,15.95,38.56,32.86,53.34a307.25,307.25,0,0,1-27.63-66c16.47,30.85,25.59,49.87,52.72,73.24-11.82-20.05-23.91-39.68-36.33-59.37l2.12-.72a486.23,486.23,0,0,0,30.23,44.15c-10.93-21.93-23.38-40.41-29.48-64.57C1099,668.26,1112.11,686,1146,705.34c-9.26-9.45-19.59-17.78-28.47-27.55S1101.43,657,1094.21,646c14.75,15.3,27.89,30.73,46.12,42-4.61-5.76-9.52-11.27-14.37-16.83l1.09-.65,12.62,10.27c.21-.16.42-.32.64-.47-11.89-16.27-24.18-32.09-36.92-47.7l1.91-.93c18.81,19,35.42,42,57.64,57.12-16.57-19.23-39.16-48.81-48.89-72,6.19,8.07,11.11,16.49,18.27,23.92a105.49,105.49,0,0,0,24.77,18.82c-13.84-13.64-26.32-28.06-35.37-45.36,25.74,25.3,44.16,45.38,77.61,61.28-18-16-36.2-31.68-54.46-47.39.83-.63,1.66-1.26,2.47-1.91,6,4.24,12,8.55,18.09,12.68.28-.21.56-.42.85-.62l-2.22-4.17c14.16,7.93,27.82,17,43.63,21.24-8.26-4.8-16.2-10.11-24.83-14.2l.75-1.17a47.65,47.65,0,0,1,7.07.22c-9.53-8-20-15-29.76-22.78.57-.45,1.13-.91,1.67-1.41,25.26,15.77,50.15,20.33,79.29,24.27-14.18-5.3-28.45-8.61-43.1-12.4l1-1.66,21.39,3.35.93-1.34c-10.13-3.09-20.26-6.14-30.29-9.52.34-.48.66-1,1-1.44,12.14,3.07,24.42,5.49,36.68,8,.37-.58.73-1.17,1.09-1.76-5.82-1.74-11.57-3.56-17.44-5.2s-12.06-2.7-17.73-4.93a145.92,145.92,0,0,1-16.19-8c25.57,5.59,51.07,11.6,77.21,13.77-13.21-4.18-26-8.9-39.44-12.29.35-.61.71-1.22,1.07-1.83,5.58,1.26,12.77,1.65,17.82,4.18l.78-1.39c-16.56-6.63-33.55-12-50.36-17.93.32-.54.64-1.09.94-1.63,41.2,10.84,77.13,5.3,118.08-4.17-10.12.41-18.47,0-29,.92s-23.17,2.77-34.1,4c.1-.64.35-1.3.5-2,6.93-1.07,13.77-2.51,20.73-3.36,0-.51.07-1,.11-1.53-4.88,0-9.73.2-14.61.34.07-.35.15-.71.22-1.06q13.89-2.48,27.88-4.31c0-.37.07-.73.1-1.09a41.24,41.24,0,0,0-6-.91c13-3.27,26-5.95,39.08-8.65-.09-.71-.19-1.43-.28-2.14-23.48,4.65-47.2,4.16-70.94,1.84,11-1.38,23.54-4.33,34.5-3,.11-.58.22-1.15.34-1.73-16.77-4.37-35.57-2.86-52.85-3.59l.51-2.73c47.72-.37,81.9-21.06,118.52-49.88-38.29,21.89-70.7,43.17-116.51,40.85,47.78-5.74,88.47-30.64,127-58.23-41.11,21.35-81,50.31-129.49,44.84,57.47-4,109.71-33.3,149.9-73.86-41.5,28.69-86.23,64.16-138.81,65.19,58.16-9.92,106.11-51.49,139.84-98-36.62,39.34-83.57,81.29-139.26,87.49,34.26-9.79,65.29-27.14,88.9-54.12-9.18,6.76-17.43,13.8-27.13,20.07a171.31,171.31,0,0,1-31.27,15.62c-10.89,4.2-21.84,6.22-33.3,8,15.69-7,31.44-13.62,46.63-21.74s28.24-19,40.48-31.05c-41.18,30.3-70.24,47.85-123,41.82-5.69,13.94-6,25.92-15.19,38.8-31.47,44.14-74.23,55.57-127.57,66.45-75.15,15.33-112.62-19.14-168.93-57.26-2.19-1.48-5.14-2.36-7.25-1.43-14.86,6.51-27.61,11.42-44.15,10.31,9.78,3.95,18.31,3,28.47,1.3-10.61,6.28-20.65,7.28-32.8,6.38,11.49,5.3,21.11,8.18,33.17,3-8.71,5.38-17.4,8.84-27.77,8.11,2.82.87,5.79.52,8.4,2.22a9.92,9.92,0,0,1,4.44,6.59c.19.94-2.41,3.4-3.93,4-5.1,2.14-10.56,5.18-15.91,7.19,4-.07,7-.19,11.2-.49a66.32,66.32,0,0,0,13.4-2.21c4.27-1.26,8.38-3.56,12.52-5.25.24.83.46,1.68.69,2.52-9.37,2.83-18.61,6.1-27.88,9.23.07.46.14.91.22,1.37,7.94-1.69,15.86-3.49,23.85-5,.22.78.45,1.55.68,2.33-8.07,2.64-16,5.69-24.22,7.93,16.29,4.52,34.61-7.31,48.85-13.81-10.48,10.11-22.74,15.71-35.69,22l.6,1.84q13.32-4.92,26.79-9.31c-14.39,10.78-28,19.3-45.47,24.14,14,2,28.07-4.51,40.87-9.23-3.2,2.37-6.26,4.89-9.53,7.19s-6.69,4.37-10,6.55l1,2c6.71-3.65,13.82-7,20.24-11s12-8.93,18.45-12.88c-5.17,5.39-10,11-15.61,15.94s-11.72,9.42-17.15,14.62c7.23-3.94,14.36-8.1,21.59-12.08C880.73,624.88,881,625.42,881.35,626Z" transform="translate(-127.99 -426.08)"/></svg>