<svg id="Layer_1" data-name="Layer 1" xmlns="http://www.w3.org/2000/svg" viewBox="0 0 1069.7 223.23"><defs><style>.cls-1{fill:#1f2020;}</style></defs><title>4</title><path class="cls-1" d="M712.5,665.21s-6.49,1.46-18,3.2-28.18,3.64-48.09,4.93c-10,.6-20.76,1-32.16.94-5.7,0-11.54-.07-17.51-.34-6-.1-12-.42-18.2-.92-6.18-.33-12.42-1-18.72-1.74-6.36-.58-12.59-1.61-18.85-2.61-6.17-.83-12.78-2.31-19.33-3.66l-7.06-1.5-2.34-.57c-3.11-.72-6.22-1.55-9.31-2.42-12.37-3.47-24.59-7.67-36.5-12.18s-23.61-9.21-34.7-14.36a331.2,331.2,0,0,1-57.29-34.29c-15.57-11.84-26.9-23.63-33.38-32.77a82.45,82.45,0,0,1-6.5-11c-1.18-2.91-1.82-4.51-1.82-4.51a3,3,0,0,0-5.65,1.74l1,4.77a71.62,71.62,0,0,0,5.31,13.55C338,580.7,346,592.17,357.3,604a58.52,58.52,0,0,1-7.26,4.13l-7.51,3.8c-2.63,1.44-5.78,2.39-8.85,3.69a83,83,0,0,1-9.74,3.5l-10.31,3.05-10.57,2.11a85.07,85.07,0,0,1-10.39,1.46c-3.39.28-6.68.92-9.81.88l-8.86.15c-5.53.27-10.07-.56-13.3-.66l-5.08-.38,5,1.05c3.18.52,7.67,2,13.23,2.45l9,1c3.2.47,6.58.28,10.1.46a91.74,91.74,0,0,0,10.86-.07L315,630l11.18-1.72a90.32,90.32,0,0,0,10.74-2.31c3.47-.94,6.87-1.5,10-2.69l9-3.13c5.73-1.86,9.43-4,12.52-5.28,2.66,2.47,5.26,4.94,8.16,7.39l-11.71,8.82c-1.31.85-2.69,1.56-4.13,2.42l-9.34,5.41c-3.24,2.09-7.31,3.33-11.19,5.16-4,1.67-8,3.69-12.41,4.77l-13.24,4-13.66,2.44c-4.5,1-9,1.06-13.4,1.37-4.37.13-8.65.85-12.66.46l-11.38-.65a49,49,0,0,1-9.58-1.14l-13.79-2.5,13.5,3.92a50.27,50.27,0,0,0,9.53,2.16l11.47,1.86c4.08.82,8.45.55,13,.88,4.52.15,9.22.6,14,0L316,660.55l14.28-2.71c4.8-.69,9.25-2.34,13.65-3.67,4.36-1.52,8.73-2.4,12.63-4.32s14.57-6.56,16.07-7.33l16-9.62-1.73-2.55c1.75,1.33,3.48,2.67,5.3,4-.42.56-.87,1.15-1.37,1.71-1.27,1.19-2.37,2.67-4.41,4.46a90.17,90.17,0,0,1-7,5.85,160.82,160.82,0,0,1-19.82,12.83,223.58,223.58,0,0,1-24.9,11.69,200.61,200.61,0,0,1-26.34,8.42,149.83,149.83,0,0,1-23.89,4.06,87.86,87.86,0,0,1-9.7.49,49.65,49.65,0,0,1-7.51-.15l-6.56-.47,6.49,1.14a49.37,49.37,0,0,0,7.52.94,91.11,91.11,0,0,0,9.85.51,153.42,153.42,0,0,0,24.73-1.62,206.63,206.63,0,0,0,27.92-5.85,232.76,232.76,0,0,0,27.1-9.46,173.47,173.47,0,0,0,22.63-11.55c3.26-1.86,6.1-4,8.65-5.81s4.9-4.1,6.75-5.68c1.19-1.12,1.94-2,2.59-2.67,1,.68,2.12,1.32,3.16,2-.63,1.06-1.29,2.14-2.05,3.45-1.08,2-2.76,4.15-4.34,6.57a142.51,142.51,0,0,1-30.09,30.93,122.59,122.59,0,0,1-19.86,12.35,105.7,105.7,0,0,1-19.18,7.37,73,73,0,0,1-8.07,1.87,44.06,44.06,0,0,1-6.33,1l-5.58.6,5.62.07a43.9,43.9,0,0,0,6.48-.21,74.22,74.22,0,0,0,8.39-.9,108.47,108.47,0,0,0,20.61-5.19,128,128,0,0,0,22.26-10.36A153.16,153.16,0,0,0,412,663.56c2.1-2.47,4.11-4.53,5.74-6.75l2.92-3.81c.27.15.51.32.78.48,4.29,2.55,8.81,4.94,13.34,7.31l-.61,1.93-6.33,13.37-8.06,12.57-9.63,11.56L399,710.6l-12.36,9L373.19,727l-14.46,5.58,15.14-3.86,14.61-5.87,13.84-7.74,12.86-9.46,11.68-11,10.3-12.51,8.7-13.83.75-1.65c3.55,1.66,7,3.38,10.68,4.91.44.18.9.33,1.35.51-.37,1.56-.85,3.08-1.36,4.76-.74,2.38-1.53,5-2.37,7.68l-5.7,13.16-2.52,4.45c-1.74,3-3.35,6.12-5.26,9.08l-6.12,8.57c-1.9,3-4.37,5.33-6.55,7.85s-4.23,5.07-6.6,7l-9.45,8.19-11.92,7.61,13-6,10.74-7c2.71-1.67,5-4.08,7.74-6.24s5.53-4.43,7.89-7.19l7.61-8.07c2.41-2.82,4.56-5.86,6.83-8.76l3.31-4.37c.94-1.54,6.39-10.53,8.07-13.31,1.42-3.06,5.26-11.37,5.81-12.64,4.14,1.39,8.32,2.69,12.56,3.86-.18,1-.37,2-.62,3-.49,2.32-1,4.84-1.6,7.5s-1.53,5.48-2.32,8.41c-1.51,5.93-4.06,11.92-6.31,18.1-2.79,5.9-5.32,12-8.51,17.33-1.55,2.67-2.84,5.42-4.46,7.75s-3,4.64-4.41,6.72c-2.64,4.26-5.47,7.33-7.17,9.72l-2.81,3.65,3.31-3.19c2-2.11,5.33-4.79,8.6-8.64l5.44-6.11c2-2.13,3.69-4.68,5.68-7.17,4.06-4.94,7.55-10.77,11.36-16.48,3.26-6,6.84-11.9,9.35-17.85,1.3-3,2.8-5.71,3.79-8.57l3-8c.43-1.1.64-1.93,1-2.91,3.28.71,6.56,1.38,9.88,1.94l4.16.71.79.1c-.07,1.4-.17,2.83-.37,4.3-.23,2.25-.49,4.68-.76,7.25s-.88,5.33-1.33,8.17c-.83,5.76-2.59,11.68-4.07,17.75-2,5.87-3.73,11.92-6.15,17.28-1.17,2.69-2.1,5.42-3.36,7.8L493,756.06c-2,4.31-4.32,7.54-5.65,10l-2.23,3.76,2.78-3.37c1.69-2.2,4.51-5.1,7.19-9.07l4.5-6.34c1.66-2.23,3-4.81,4.63-7.37,3.32-5.08,6.05-10.94,9.07-16.72,2.5-6,5.31-11.92,7.12-17.78,1-2.93,2.09-5.67,2.77-8.47s1.43-5.42,2.07-7.86c.46-1.62.79-3.07,1.08-4.43,2.61.31,5.29.54,8,.77a51.3,51.3,0,0,1,.15,5.47,140.18,140.18,0,0,1-.43,14.68c-.21,5.5-1.17,11.31-1.83,17.2-1.07,5.8-1.91,11.71-3.27,17.12-1.13,5.47-2.52,10.51-3.74,14.83s-2.45,7.85-3.21,10.37l-1.29,3.93,1.91-3.66c1.16-2.36,3.08-5.63,4.9-9.77s4.15-8.92,6.2-14.22c2.26-5.24,4.1-11,6.17-16.79,1.67-5.86,3.64-11.69,4.81-17.36a149,149,0,0,0,3.07-15.81c.34-1.82.53-3.4.69-4.88,3.32.21,6.61.37,9.85.41.19.93.36,1.88.49,2.85.34,2.12.71,4.41,1.11,6.84s.45,5.15.72,7.89c.64,5.54.28,11.46.28,17.47-.63,5.91-.92,12-2.17,17.49-.57,2.76-.86,5.53-1.62,8s-1.33,4.9-1.94,7.1c-1.08,4.47-2.76,7.9-3.58,10.47s-1.47,4-1.47,4l2.08-3.67c1.21-2.39,3.47-5.6,5.27-9.87l3.12-6.84c1.18-2.42,1.92-5.14,3-7.88,2.18-5.47,3.5-11.59,5.15-17.7,1-6.2,2.4-12.44,2.69-18.41.19-3,.66-5.83.59-8.65s0-8.5,0-8.8c2,0,4,0,6,0,.66,0,1.29,0,1.95,0,.38,1.9,2.16,10.86,2.64,13.26s.53,4.8.83,7.37c.54,5.16,1.11,10.66,1.69,16.16.09,5.62.18,11.23.26,16.5,0,2.64.17,5.23,0,7.64s-1.75,21-1.75,21,4.75-18.13,5.38-20.52.83-5,1.29-7.63c.84-5.35,1.75-11,2.65-16.74.4-5.84.8-11.68,1.18-17.16.15-2.75.43-5.48.45-8s-.25-10.66-.28-12.29c2-.09,4-.21,6-.33l9.48,74,4.66-75,.45,0c.86-.08,1.66-.19,2.52-.28a37.89,37.89,0,0,0,.42,3.88c.3,2,.62,4.16,1,6.45s1.17,4.32,1.79,6.59c1.09,4.56,3.3,9,5.1,13.52,2.3,4.31,4.33,8.67,6.92,12.38a95.76,95.76,0,0,0,7.08,10A80.42,80.42,0,0,0,645.3,748l2.18,2.37-1.64-2.78a77.89,77.89,0,0,1-4.08-7.39,92.24,92.24,0,0,1-4.68-10.86c-1.68-4-2.7-8.45-4-12.77-.74-4.46-1.88-8.81-2-13-.11-2-.38-4.06-.33-5.84s.2-3.34.29-4.84a18.87,18.87,0,0,1,.48-4.29c.11-.57.18-1,.28-1.47l3.2-.46c0,.44,0,.86.11,1.44a28.35,28.35,0,0,0,.7,4.76,50.37,50.37,0,0,0,9.84,19.9A86.77,86.77,0,0,0,668,732.56a67.38,67.38,0,0,1-5.8-7,79,79,0,0,1-9.67-16.78,39.41,39.41,0,0,1-3.4-17.27,13.64,13.64,0,0,1,.36-2.62,16.63,16.63,0,0,1,.51-2.32c.32-1.23.49-1.89.57-2.17l3.34-.55c.12.24.19.4.35.69a57.24,57.24,0,0,0,3,5.64c.8,1.25,1.68,2.6,2.6,4a40.2,40.2,0,0,0,3.18,3.93c2.11,2.72,5,5,7.6,7.43,3,2.06,5.72,4.25,8.73,5.65a38,38,0,0,0,4.2,2.08l3.91,1.48a41.56,41.56,0,0,0,5.94,1.61l2.23.52-2-1.16a38.64,38.64,0,0,1-5.05-3.17l-3.12-2.4a34.83,34.83,0,0,1-3.16-3c-2.23-2-4-4.66-6-7-1.57-2.73-3.32-5.22-4.31-7.92a29.41,29.41,0,0,1-1.49-3.69l-.9-3.18a26.71,26.71,0,0,1-.91-4.32c10.73-2.22,19.82-4.52,27-6.41,11.46-3.08,17.91-5.32,17.91-5.32a2.16,2.16,0,0,0-1.18-4.15Z" transform="translate(-240.08 -549.54)"/><path class="cls-1" d="M1303.34,653.94l-7.35,1.33a49,49,0,0,1-9.58,1.14l-11.38.65c-4,.39-8.29-.33-12.66-.46-4.37-.31-8.9-.33-13.4-1.37l-13.66-2.44-13.24-4c-4.41-1.08-8.44-3.1-12.41-4.77-3.88-1.83-8-3.07-11.19-5.16l-9.34-5.41c-1.44-.86-2.82-1.57-4.13-2.42l-11.71-8.82c2.9-2.45,5.5-4.92,8.16-7.39,3.09,1.24,6.79,3.42,12.52,5.28l9,3.13c3.15,1.19,6.56,1.75,10,2.69a90.92,90.92,0,0,0,10.75,2.31l11.18,1.72,11.24.73a91.74,91.74,0,0,0,10.86.07c3.52-.18,6.9,0,10.1-.46l9-1c5.56-.48,10-1.93,13.23-2.45l5-1.05-5.08.38c-3.23.1-7.77.93-13.29.66l-8.87-.15c-3.13,0-6.42-.6-9.81-.88a85.07,85.07,0,0,1-10.39-1.46l-10.57-2.11-10.31-3.05a83,83,0,0,1-9.74-3.5c-3.07-1.3-6.22-2.25-8.85-3.69l-7.51-3.8a58.52,58.52,0,0,1-7.26-4.13c11.27-11.87,19.34-23.34,23.91-32.59a71.62,71.62,0,0,0,5.31-13.55l1-4.77a3,3,0,0,0-5.65-1.74s-.64,1.6-1.82,4.51a82.45,82.45,0,0,1-6.5,11c-6.48,9.14-17.81,20.93-33.38,32.77A331.2,331.2,0,0,1,1118.18,634c-11.09,5.15-22.73,10-34.7,14.36s-24.13,8.71-36.5,12.18c-3.09.87-6.2,1.7-9.32,2.42l-4.46,1-4.93,1c-6.55,1.35-13.16,2.83-19.33,3.66-6.26,1-12.49,2-18.85,2.61-6.3.76-12.54,1.41-18.72,1.74-6.16.5-12.24.82-18.2.92-6,.27-11.81.37-17.51.34-11.4.09-22.2-.34-32.16-.94-19.91-1.29-36.53-3.14-48.09-4.93s-18-3.2-18-3.2a2.16,2.16,0,0,0-1.18,4.15s6.45,2.24,17.91,5.32c7.15,1.89,16.24,4.19,27,6.41a26.71,26.71,0,0,1-.91,4.32l-.9,3.18a28,28,0,0,1-1.49,3.69c-1,2.7-2.74,5.19-4.31,7.92-1.93,2.39-3.73,5.07-6,7a34.83,34.83,0,0,1-3.16,3l-3.12,2.4a38.64,38.64,0,0,1-5.05,3.17l-2,1.16,2.23-.52a41.56,41.56,0,0,0,5.94-1.61l3.91-1.48a38,38,0,0,0,4.2-2.08c3-1.4,5.76-3.59,8.73-5.65,2.61-2.4,5.49-4.71,7.6-7.43a40.2,40.2,0,0,0,3.18-3.93c.92-1.44,1.8-2.79,2.6-4a57.24,57.24,0,0,0,3.05-5.64c.16-.29.23-.45.35-.69l3.34.55c.08.28.25.94.57,2.17a16.63,16.63,0,0,1,.51,2.32,13.64,13.64,0,0,1,.36,2.62,39.41,39.41,0,0,1-3.4,17.27,79,79,0,0,1-9.67,16.78,67.38,67.38,0,0,1-5.8,7,86.77,86.77,0,0,0,22.26-19.74,50.37,50.37,0,0,0,9.84-19.9,28.35,28.35,0,0,0,.7-4.76c.06-.58.08-1,.11-1.44l3.2.46c.09.5.17.9.28,1.47a18.87,18.87,0,0,1,.48,4.29c.09,1.5.19,3.12.29,4.84s-.22,3.8-.33,5.84c-.07,4.14-1.21,8.49-2,13-1.26,4.32-2.28,8.81-4,12.77a92.24,92.24,0,0,1-4.68,10.86,77.89,77.89,0,0,1-4.08,7.39l-1.64,2.78,2.18-2.37a80.42,80.42,0,0,0,5.61-6.47,95.76,95.76,0,0,0,7.08-10c2.59-3.71,4.62-8.07,6.92-12.38,1.8-4.51,4-9,5.1-13.52.62-2.27,1.36-4.38,1.79-6.59s.67-4.45,1-6.45a37.89,37.89,0,0,0,.42-3.88c.86.09,1.66.2,2.52.28l.45,0,4.66,75,9.48-74c2,.12,4,.24,6,.33,0,1.63-.22,9.85-.28,12.29s.3,5.21.45,8c.38,5.48.78,11.32,1.18,17.16.9,5.7,1.8,11.39,2.65,16.74.46,2.65.75,5.22,1.29,7.63s5.38,20.52,5.38,20.52-1.55-18.55-1.75-21,0-5,0-7.64c.08-5.27.17-10.88.26-16.5.58-5.5,1.15-11,1.69-16.16.3-2.57.43-5,.83-7.37s2.26-11.36,2.64-13.26c.66,0,1.29,0,1.95,0,2,.06,4,0,6,0,0,.3,0,.55,0,.86,0,2.46,0,5.13,0,7.94s.4,5.66.59,8.65c.29,6,1.66,12.21,2.69,18.41,1.65,6.11,3,12.23,5.15,17.7,1,2.74,1.79,5.46,3,7.88l3.12,6.84c1.8,4.27,4.06,7.48,5.27,9.87l2.08,3.67s-.53-1.44-1.47-4-2.5-6-3.58-10.47c-.61-2.2-1.26-4.58-1.94-7.1s-1-5.25-1.62-8c-1.25-5.52-1.54-11.58-2.17-17.49,0-6-.36-11.93.28-17.47.27-2.74.25-5.47.72-7.89s.77-4.72,1.11-6.84c.12-1,.3-1.92.49-2.85,3.24,0,6.53-.2,9.85-.41.15,1.48.35,3.06.69,4.88a149,149,0,0,0,3.07,15.81c1.17,5.67,3.14,11.5,4.81,17.36,2.07,5.76,3.91,11.55,6.17,16.79,2,5.3,4.27,10.12,6.2,14.22s3.74,7.41,4.9,9.77l1.91,3.66s-.47-1.43-1.28-3.93-2.11-6-3.22-10.37-2.61-9.36-3.74-14.83c-1.36-5.41-2.2-11.32-3.27-17.12-.66-5.89-1.63-11.7-1.83-17.2a140.18,140.18,0,0,1-.43-14.68,51.3,51.3,0,0,1,.15-5.47c2.69-.23,5.37-.46,8-.77.29,1.36.62,2.81,1.07,4.43.65,2.44,1.34,5.07,2.08,7.86s1.82,5.54,2.77,8.47c1.81,5.86,4.62,11.8,7.12,17.78,3,5.78,5.75,11.64,9.07,16.72,1.62,2.56,3,5.14,4.63,7.37l4.5,6.34c2.68,4,5.5,6.87,7.19,9.07l2.78,3.37-2.23-3.76c-1.33-2.45-3.63-5.68-5.65-10l-3.41-6.84c-1.26-2.38-2.19-5.11-3.36-7.8-2.42-5.36-4.15-11.41-6.15-17.28-1.48-6.07-3.24-12-4.07-17.75-.45-2.84-1.14-5.59-1.34-8.17s-.52-5-.75-7.25c-.2-1.47-.3-2.9-.37-4.3l.79-.1,4.16-.71c3.32-.56,6.6-1.23,9.87-1.94.34,1,.55,1.81,1,2.91l3,8c1,2.86,2.48,5.6,3.78,8.57,2.52,6,6.1,11.86,9.36,17.85,3.81,5.71,7.3,11.54,11.36,16.48,2,2.49,3.68,5,5.68,7.17l5.44,6.11c3.27,3.85,6.57,6.53,8.6,8.64l3.31,3.19-2.81-3.65c-1.7-2.39-4.53-5.46-7.17-9.72-1.37-2.08-2.85-4.33-4.41-6.72s-2.91-5.08-4.46-7.75c-3.19-5.3-5.72-11.43-8.51-17.33-2.25-6.18-4.8-12.17-6.31-18.1-.79-2.93-1.83-5.73-2.32-8.41s-2-9.52-2.22-10.51c4.24-1.17,8.42-2.47,12.56-3.86.55,1.27,1.17,2.62,1.81,4l4,8.62c1.68,2.78,7.13,11.77,8.07,13.31l3.31,4.37c2.27,2.9,4.42,5.94,6.83,8.76l7.61,8.07c2.36,2.76,5.3,4.91,7.89,7.19s5,4.57,7.74,6.24l10.74,7,13,6-11.92-7.6-9.45-8.2c-2.37-1.93-4.31-4.61-6.6-7s-4.65-4.88-6.55-7.85l-6.12-8.57c-1.91-3-3.52-6.11-5.26-9.08l-2.52-4.45-5.7-13.16c-.84-2.73-1.63-5.3-2.37-7.68-.51-1.68-1-3.2-1.36-4.76.45-.18.91-.33,1.35-.51,3.66-1.53,7.13-3.25,10.68-4.91l.75,1.65,8.7,13.83,10.3,12.51,11.68,11,12.86,9.46,13.84,7.74L1176,728.7l15.14,3.86L1176.67,727l-13.5-7.4-12.35-9-11.06-10.38-9.64-11.56-8-12.57-6.33-13.37-.61-1.93c4.53-2.37,9-4.76,13.34-7.31.27-.16.51-.33.78-.48l2.92,3.81c1.63,2.22,3.64,4.28,5.73,6.75A153.43,153.43,0,0,0,1174,692.7a128,128,0,0,0,22.26,10.36,108.47,108.47,0,0,0,20.61,5.19,74.22,74.22,0,0,0,8.39.9,43.94,43.94,0,0,0,6.48.21l5.62-.07-5.58-.6a44.06,44.06,0,0,1-6.33-1,73,73,0,0,1-8.07-1.87,105.7,105.7,0,0,1-19.18-7.37,122.59,122.59,0,0,1-19.86-12.35,142.51,142.51,0,0,1-30.09-30.93c-1.58-2.42-3.26-4.61-4.34-6.57-.76-1.31-1.43-2.39-2.05-3.45,1-.67,2.14-1.31,3.16-2,.65.72,1.4,1.55,2.59,2.67,1.85,1.58,4.19,3.88,6.75,5.68s5.39,4,8.65,5.81a173.47,173.47,0,0,0,22.63,11.55,232.76,232.76,0,0,0,27.1,9.46,206.63,206.63,0,0,0,27.92,5.85,153.42,153.42,0,0,0,24.73,1.62,91.11,91.11,0,0,0,9.85-.51,49.37,49.37,0,0,0,7.52-.94l6.49-1.14-6.56.47a49.65,49.65,0,0,1-7.51.15,87.86,87.86,0,0,1-9.7-.49,149.83,149.83,0,0,1-23.89-4.06,200.61,200.61,0,0,1-26.34-8.42,223.58,223.58,0,0,1-24.9-11.69,160.82,160.82,0,0,1-19.82-12.83,90.17,90.17,0,0,1-7-5.85c-2-1.79-3.14-3.27-4.41-4.46-.5-.56-.95-1.15-1.37-1.71,1.82-1.32,3.55-2.66,5.3-4l-1.73,2.55,16,9.62c1.5.77,3.22,1.5,4.93,2.3l11.14,5c3.9,1.92,8.27,2.8,12.63,4.32,4.4,1.33,8.85,3,13.65,3.67l14.28,2.71,14.46,1.06c4.74.58,9.44.13,14,0,4.52-.33,8.89-.06,13-.88l11.47-1.86a50.27,50.27,0,0,0,9.53-2.16l13.5-3.92Z" transform="translate(-240.08 -549.54)"/></svg>